<svg xmlns="http://www.w3.org/2000/svg" viewBox="0 0 137.629 111.234"><g fill="none" fill-rule="evenodd" stroke="#000" stroke-linecap="square" stroke-linejoin="bevel" font-family="'Sans Serif'" font-size="31.75" font-weight="400"><path fill="#343a40" stroke="none" d="m30.685 6.093.013 33.244c3.153.786 6.556 1.19 9.994 1.188 13.8-.011 24.98-6.438 24.977-14.358-.003-7.92-11.188-14.338-24.988-14.338-5.52 0-9.994-2.568-9.996-5.736zm69.995 26.57a38.61 38.61 0 0 0-7.391.412c-9.84 1.515-16.681 6.635-16.68 12.48.004 7.13 10.07 12.905 22.49 12.906 5.52 0 9.994 2.566 9.996 5.735 0 3.17-4.48 5.743-10.005 5.743-7.46 0-14.788-1.127-21.247-3.268L18.15 48.543c-6.84-2.267-12.517-5.527-16.464-9.453C.811 38.218.35 37.23.35 36.224L.366 77.17c0 1.007.461 1.995 1.337 2.866 3.947 3.926 9.625 7.187 16.464 9.454l59.692 18.127c6.459 2.141 13.787 3.268 21.247 3.268 5.526 0 10.006-2.572 10.005-5.743l-.012-30.227c3.985 1.13 7.297 2.912 9.518 5.122 2.262 2.25 6.876 3.347 11.25 2.674 4.373-.674 7.414-2.95 7.412-5.548l-.016-40.945c.001 2.598-3.04 4.874-7.413 5.547-4.373.674-8.987-.423-11.249-2.673-3.817-3.798-10.611-6.135-17.921-6.427z"/><path stroke-linecap="round" stroke-width=".7000000000000001" d="M118.617 80.036c2.262 2.25 6.876 3.347 11.25 2.674 4.373-.674 7.414-2.95 7.412-5.548M118.617 80.036c-2.221-2.21-5.533-3.992-9.518-5.122M99.106 110.884c5.525 0 10.006-2.572 10.005-5.743M77.859 107.616c6.459 2.141 13.787 3.268 21.247 3.268M18.167 89.488l59.692 18.128M1.703 80.035c3.947 3.926 9.625 7.187 16.464 9.453M.366 77.17c0 1.005.462 1.994 1.337 2.865"/><path fill="#868e96" stroke-linecap="round" stroke-width=".7000000000000001" d="M109.095 64.196c-.002-3.168-4.476-5.736-9.996-5.736-12.42 0-22.486-5.776-22.49-12.904-.001-5.846 6.84-10.966 16.68-12.481 9.84-1.515 20.223.952 25.312 6.016 2.262 2.25 6.876 3.347 11.25 2.673 4.373-.673 7.413-2.949 7.412-5.547 0-1.006-.461-1.994-1.337-2.866-3.727-3.708-9.09-6.787-15.549-8.928L63.187 3.81C56.348 1.543 48.59.35 40.69.35c-5.525 0-10.006 2.572-10.004 5.743 0 3.168 4.475 5.735 9.995 5.735 13.8 0 24.985 6.418 24.988 14.339.003 6.496-7.6 12.184-18.532 13.868-10.934 1.683-22.47-1.059-28.124-6.684-2.262-2.25-6.877-3.347-11.25-2.674S.349 33.626.35 36.224c0 1.006.462 1.994 1.337 2.866 3.947 3.926 9.625 7.186 16.464 9.453l59.692 18.128c6.459 2.14 13.787 3.268 21.247 3.268 5.525 0 10.006-2.572 10.005-5.743z"/><path stroke-linecap="round" stroke-width=".7000000000000001" d="m137.263 36.217.016 40.945M109.095 64.196l.016 40.945M.35 36.224.366 77.17M30.686 6.093l.013 33.244"/></g></svg>